<svg xmlns="http://www.w3.org/2000/svg" width="14.697" height="15" viewBox="0 0 14.697 15">
  <path id="google_1_" data-name="google (1)" d="M135.5,134.426h7.08a7.092,7.092,0,0,1,.117,1.25,7.913,7.913,0,0,1-.889,3.784,6.417,6.417,0,0,1-2.534,2.6A7.489,7.489,0,0,1,135.5,143a7.374,7.374,0,0,1-2.92-.591,7.351,7.351,0,0,1-3.989-3.989,7.51,7.51,0,0,1,0-5.84,7.351,7.351,0,0,1,3.989-3.989A7.372,7.372,0,0,1,135.5,128a7.107,7.107,0,0,1,5.029,1.963l-2.041,1.963a4.128,4.128,0,0,0-2.988-1.162,4.481,4.481,0,0,0-2.329.635,4.777,4.777,0,0,0,0,8.2,4.481,4.481,0,0,0,2.329.635,4.979,4.979,0,0,0,1.563-.234,3.941,3.941,0,0,0,1.172-.586,4.243,4.243,0,0,0,.8-.8,3.734,3.734,0,0,0,.5-.85,3.6,3.6,0,0,0,.22-.762H135.5Z" transform="translate(-128 -128)" fill="#fff"/>
</svg>
