<svg xmlns="http://www.w3.org/2000/svg" width="15.697" height="15" viewBox="0 0 15.697 15">
  <path id="linkedin_3_" data-name="linkedin (3)" d="M0,6.742a1.632,1.632,0,0,1,.53-1.25A1.945,1.945,0,0,1,1.909,5a1.887,1.887,0,0,1,1.348.485,1.709,1.709,0,0,1,.53,1.3A1.6,1.6,0,0,1,3.273,8a1.949,1.949,0,0,1-1.394.5H1.864A1.854,1.854,0,0,1,.515,8,1.679,1.679,0,0,1,0,6.742ZM.2,20V9.879H3.561V20Zm5.227,0H8.788V14.348a1.972,1.972,0,0,1,.765-1.689,1.646,1.646,0,0,1,1.083-.356q1.7,0,1.7,2.288V20H15.7V14.2a4.877,4.877,0,0,0-1.061-3.4,3.618,3.618,0,0,0-2.8-1.159,3.438,3.438,0,0,0-3.045,1.682v.03H8.773l.015-.03V9.879H5.424q.03.485.03,3.015T5.424,20Z" transform="translate(0 -5)" fill="#fff"/>
</svg>
