<svg xmlns="http://www.w3.org/2000/svg" width="18.703" height="22" viewBox="0 0 18.703 22">
  <path id="location_2_" data-name="location (2)" d="M9.384,0a9.4,9.4,0,0,1,6.6,2.739A9.239,9.239,0,0,1,18.7,9.307h0v.055c-.066,3.333-1.936,6.4-4.269,8.8a24.335,24.335,0,0,1-4.379,3.564,1.149,1.149,0,0,1-1.485,0A24.206,24.206,0,0,1,2.42,16,11.889,11.889,0,0,1,0,9.23,9.318,9.318,0,0,1,9.384,0Zm0,6.524a2.932,2.932,0,1,0-.033,5.864h.033a2.965,2.965,0,0,0,2.079-.836A2.925,2.925,0,0,0,9.384,6.524Z" transform="translate(0 0)" fill="#fff"/>
</svg>
