<svg xmlns="http://www.w3.org/2000/svg" width="23.482" height="23.483" viewBox="0 0 23.482 23.483">
  <path id="call_4_" data-name="call (4)" d="M23.059,20.345c-.725,2.2-3.565,3.3-5.593,3.118a17.839,17.839,0,0,1-8.075-3.339A26.6,26.6,0,0,1,1.04,10.158C-.258,7.4-.549,4,1.381,1.489A3.319,3.319,0,0,1,4.027,0C5.636-.074,5.861.847,6.414,2.281c.412,1.072.961,2.167,1.268,3.278.575,2.074-1.434,2.16-1.688,3.856-.157,1.069,1.138,2.5,1.724,3.266A15.819,15.819,0,0,0,11.8,16.442c.892.562,2.329,1.575,3.35,1.016,1.572-.861,1.425-3.511,3.621-2.614A35.363,35.363,0,0,1,22.1,16.561c1.68.9,1.6,1.839.961,3.784h0" transform="translate(0 0)" fill="#fff" fill-rule="evenodd"/>
</svg>
