<svg xmlns="http://www.w3.org/2000/svg" width="12.187" height="15" viewBox="0 0 12.187 15">
  <path id="pinterest" d="M8.3,0C4.186,0,2,2.634,2,5.507a4.023,4.023,0,0,0,1.936,3.52c.181.082.279.047.32-.121.036-.128.192-.742.268-1.031a.265.265,0,0,0-.064-.261,3.416,3.416,0,0,1-.71-2.073,4.041,4.041,0,0,1,4.3-3.949,3.684,3.684,0,0,1,3.984,3.7c0,2.461-1.3,4.164-2.995,4.164A1.341,1.341,0,0,1,7.63,7.813a17.824,17.824,0,0,0,.791-3.028,1.163,1.163,0,0,0-1.2-1.28A1.986,1.986,0,0,0,5.49,5.716a3.153,3.153,0,0,0,.285,1.349L4.657,11.587a10.118,10.118,0,0,0,.069,3.324.1.1,0,0,0,.18.046,11.812,11.812,0,0,0,1.553-2.924c.116-.428.593-2.166.593-2.166a2.592,2.592,0,0,0,2.186,1.043c2.873,0,4.948-2.525,4.948-5.658C14.177,2.247,11.606,0,8.3,0" transform="translate(-2)" fill="#fff"/>
</svg>
