<svg xmlns="http://www.w3.org/2000/svg" width="306.1" height="77.664" viewBox="0 0 306.1 77.664">
  <g id="Group_1624" data-name="Group 1624" transform="translate(-234.586 -458.68)">
    <g id="Group_1" data-name="Group 1" transform="translate(234.586 458.68)">
      <path id="Path_1" data-name="Path 1" d="M273.284,468.792c-.077.451-.008.98-.473,1.259-1.383.828-1.36,1.559-.068,2.551.865.665.822,1.288-.545,1.348a21.9,21.9,0,0,0-3.946.627c-11.37,2.626-18.8,12.777-18.13,24.711.618,10.933,9.566,20.169,20.792,21.462a23.423,23.423,0,0,0,26.147-21.23c.045-.465.091-.93.16-1.392.055-.369-.092-.856.406-1.018.522-.17.648.3.863.62a1.431,1.431,0,0,0,2.292.41c.494-.537-.124-1.13,1.284-1.148,1.507-.019.926,1,1.289,1.007s.128-.673.5-.848a4.867,4.867,0,0,1,1.978-.106c.364.058.218.365.211.431-.034.346.208.449.549.452.245,0,1.113.089,1.113-.265,0-.194-.012-.566.3-.583,1.643-.088,1.051.522,1.251,1.1.233.672,1.414.471,1.772.457,1.729-.068.666-.911,1.252-1.517-.486.113.39-.288.459.053,1.519,7.406-5.972,23.815-15.046,30.884a39,39,0,0,1-60.851-43.644c6.281-17.416,22.848-26.088,36.221-25.718-1.231,1.129-2.521,2.256-.248,3.473.338.181.835.765.612,1.009-.447.49-.989.469-.895,1.287.054.474,1.066.88,1.112,1.414.148,1.732-.453,1.092-.806,1.836-.051.108.53.88.453,1.12Z" transform="translate(-234.586 -458.68)" fill="#7abb46"/>
      <path id="Path_2" data-name="Path 2" d="M378.552,498.436a2.743,2.743,0,0,1-2.751,2.8,2.641,2.641,0,0,1-2.731-2.6,2.684,2.684,0,0,1,2.612-2.9A2.816,2.816,0,0,1,378.552,498.436Z" transform="translate(-305.963 -477.778)" fill="#4687c7"/>
      <path id="Path_3" data-name="Path 3" d="M349.726,485.679a2.284,2.284,0,0,1-2.1-2.428,2.384,2.384,0,0,1,2.6-2.4,2.277,2.277,0,0,1,2.231,2.541A2.375,2.375,0,0,1,349.726,485.679Z" transform="translate(-292.853 -470.103)" fill="#4687c7"/>
      <path id="Path_4" data-name="Path 4" d="M326.982,480.673a2.252,2.252,0,0,1,2.4,2.373,2.386,2.386,0,1,1-4.772.07A2.292,2.292,0,0,1,326.982,480.673Z" transform="translate(-280.987 -470.016)" fill="#4687c7"/>
      <path id="Path_5" data-name="Path 5" d="M336.711,471.886a1.949,1.949,0,0,1-1.969,2.092,1.86,1.86,0,0,1-2.076-1.945,1.811,1.811,0,0,1,1.937-2.054A1.89,1.89,0,0,1,336.711,471.886Z" transform="translate(-285.14 -464.503)" fill="#4687c7"/>
      <path id="Path_6" data-name="Path 6" d="M379.214,529.819a1.822,1.822,0,0,1-1.841,1.994,1.9,1.9,0,0,1-.086-3.806A1.769,1.769,0,0,1,379.214,529.819Z" transform="translate(-307.207 -494.414)" fill="#4687c7"/>
      <path id="Path_7" data-name="Path 7" d="M341.487,486.868a1.846,1.846,0,0,1-1.988,1.847,1.754,1.754,0,0,1-1.839-1.938,1.73,1.73,0,0,1,1.936-1.822C340.8,484.979,341.326,485.781,341.487,486.868Z" transform="translate(-287.715 -472.223)" fill="#4687c7"/>
      <path id="Path_8" data-name="Path 8" d="M347.333,469.542c-.217,1.254-.886,1.986-2.044,1.9a1.893,1.893,0,1,1,.187-3.782C346.688,467.708,347.156,468.566,347.333,469.542Z" transform="translate(-290.715 -463.31)" fill="#4687c7"/>
      <path id="Path_9" data-name="Path 9" d="M368.757,509.634c-.151,1.1-.66,1.9-1.862,1.95a1.858,1.858,0,1,1-.167-3.712A1.829,1.829,0,0,1,368.757,509.634Z" transform="translate(-301.768 -484.033)" fill="#4687c7"/>
      <path id="Path_10" data-name="Path 10" d="M363.872,485.7c1.285.1,1.97.773,1.931,1.927a1.811,1.811,0,1,1-3.618-.154A1.736,1.736,0,0,1,363.872,485.7Z" transform="translate(-300.357 -472.605)" fill="#4687c7"/>
      <path id="Path_11" data-name="Path 11" d="M355.356,499.912c-.133,1.085-.727,1.784-1.788,1.779a1.751,1.751,0,1,1,.012-3.5A1.7,1.7,0,0,1,355.356,499.912Z" transform="translate(-295.016 -479.045)" fill="#4687c7"/>
      <path id="Path_12" data-name="Path 12" d="M383.067,519.832c-1.1-.055-1.726-.526-1.718-1.584a1.481,1.481,0,0,1,1.644-1.583,1.46,1.46,0,0,1,1.541,1.49A1.5,1.5,0,0,1,383.067,519.832Z" transform="translate(-310.235 -488.568)" fill="#4687c7"/>
      <path id="Path_13" data-name="Path 13" d="M362.522,479.995c-.933-.108-1.545-.607-1.554-1.515a1.512,1.512,0,0,1,1.615-1.636,1.419,1.419,0,0,1,1.509,1.5A1.518,1.518,0,0,1,362.522,479.995Z" transform="translate(-299.73 -468.042)" fill="#4687c7"/>
      <path id="Path_14" data-name="Path 14" d="M320.252,465.875a1.5,1.5,0,0,1-1.647,1.419,1.432,1.432,0,0,1-1.426-1.612,1.408,1.408,0,0,1,1.625-1.394A1.5,1.5,0,0,1,320.252,465.875Z" transform="translate(-277.156 -461.567)" fill="#4687c7"/>
      <path id="Path_15" data-name="Path 15" d="M367.288,525.986a1.488,1.488,0,0,1-1.544,1.472,1.38,1.38,0,0,1-1.563-1.4,1.412,1.412,0,0,1,1.6-1.568A1.5,1.5,0,0,1,367.288,525.986Z" transform="translate(-301.385 -492.6)" fill="#4687c7"/>
      <path id="Path_16" data-name="Path 16" d="M390.142,524.473c.843.075,1.394.5,1.4,1.363a1.37,1.37,0,0,1-1.477,1.5,1.266,1.266,0,0,1-1.372-1.365A1.339,1.339,0,0,1,390.142,524.473Z" transform="translate(-314.02 -492.593)" fill="#4687c7"/>
      <path id="Path_17" data-name="Path 17" d="M378.359,511.017a1.419,1.419,0,0,1-1.476,1.495,1.263,1.263,0,0,1-1.379-1.337,1.282,1.282,0,0,1,1.229-1.482C377.683,509.592,378.184,510.115,378.359,511.017Z" transform="translate(-307.222 -484.968)" fill="#4687c7"/>
      <path id="Path_18" data-name="Path 18" d="M387.586,510.773a1.345,1.345,0,0,1-1.465,1.391,1.373,1.373,0,1,1,.115-2.742A1.3,1.3,0,0,1,387.586,510.773Z" transform="translate(-312.006 -484.834)" fill="#4687c7"/>
      <path id="Path_19" data-name="Path 19" d="M360.1,508.333a1.374,1.374,0,0,1-1.354,1.439,1.27,1.27,0,0,1-1.422-1.32,1.222,1.222,0,0,1,1.3-1.408A1.351,1.351,0,0,1,360.1,508.333Z" transform="translate(-297.852 -483.608)" fill="#4687c7"/>
      <path id="Path_20" data-name="Path 20" d="M332.914,463.9c-.147.774-.567,1.3-1.324,1.284a1.245,1.245,0,0,1-1.354-1.375,1.176,1.176,0,0,1,1.277-1.227A1.328,1.328,0,0,1,332.914,463.9Z" transform="translate(-283.888 -460.692)" fill="#4687c7"/>
      <path id="Path_21" data-name="Path 21" d="M375.935,521.778a1.346,1.346,0,0,1-1.432,1.347,1.212,1.212,0,0,1-1.244-1.277,1.239,1.239,0,0,1,1.2-1.326C375.336,520.44,375.758,521,375.935,521.778Z" transform="translate(-306.065 -490.552)" fill="#4687c7"/>
      <path id="Path_22" data-name="Path 22" d="M367.1,498.16a1.118,1.118,0,0,1-1.219-1.053,1.168,1.168,0,0,1,1.171-1.31,1.04,1.04,0,0,1,1.172,1.055A1.123,1.123,0,0,1,367.1,498.16Z" transform="translate(-302.261 -477.81)" fill="#4687c7"/>
      <path id="Path_23" data-name="Path 23" d="M347.473,495.72a1.16,1.16,0,0,1-1.087,1.211,1.107,1.107,0,0,1-1.26-1.206,1.038,1.038,0,0,1,1.162-1.079A1.105,1.105,0,0,1,347.473,495.72Z" transform="translate(-291.564 -477.219)" fill="#4687c7"/>
      <path id="Path_24" data-name="Path 24" d="M385.839,532.589c-.626-.123-1.027-.453-.936-1.088a.943.943,0,0,1,1.143-.841.9.9,0,0,1,.795.983C386.836,532.3,386.424,532.564,385.839,532.589Z" transform="translate(-312.06 -495.776)" fill="#4687c7"/>
      <path id="Path_25" data-name="Path 25" d="M353.707,475.69c.645-.006,1.029.284,1.041.93a.9.9,0,0,1-.776.992.952.952,0,0,1-1.133-.853C352.72,476.116,353.13,475.8,353.707,475.69Z" transform="translate(-295.529 -467.448)" fill="#4687c7"/>
      <path id="Path_26" data-name="Path 26" d="M370.522,517.807c.012.687-.219,1.09-.758,1.153a.863.863,0,0,1-1.043-.922.917.917,0,0,1,1.8-.231Z" transform="translate(-303.726 -488.809)" fill="#4687c7"/>
      <path id="Path_27" data-name="Path 27" d="M326.552,460.477a.911.911,0,0,1-.859.926.819.819,0,0,1-.9-.85.845.845,0,0,1,.847-.913C326.182,459.6,326.46,459.969,326.552,460.477Z" transform="translate(-281.083 -459.173)" fill="#4687c7"/>
      <path id="Path_28" data-name="Path 28" d="M371.941,531.562c-.055.6-.339.954-.865.989a.807.807,0,0,1-.928-.814.852.852,0,0,1,.842-.927A.9.9,0,0,1,371.941,531.562Z" transform="translate(-304.461 -495.859)" fill="#4687c7"/>
      <path id="Path_29" data-name="Path 29" d="M326.53,470.877a.792.792,0,0,1-.856.853.825.825,0,0,1-.939-.8.8.8,0,0,1,.851-.887A.873.873,0,0,1,326.53,470.877Z" transform="translate(-281.053 -464.535)" fill="#4687c7"/>
      <path id="Path_30" data-name="Path 30" d="M321.652,476.4a.883.883,0,0,1-.912.862.823.823,0,0,1-.858-.9.81.81,0,0,1,.9-.858A.853.853,0,0,1,321.652,476.4Z" transform="translate(-278.552 -467.351)" fill="#4687c7"/>
      <path id="Path_31" data-name="Path 31" d="M355.158,472.58c-.513-.108-.86-.425-.75-.967a.81.81,0,0,1,1.044-.673.785.785,0,0,1,.681.852A.832.832,0,0,1,355.158,472.58Z" transform="translate(-296.338 -464.985)" fill="#4687c7"/>
      <path id="Path_32" data-name="Path 32" d="M375.507,487.7a.829.829,0,0,1-.794.956c-.561.039-.847-.341-.872-.864a.788.788,0,0,1,.692-.845A.823.823,0,0,1,375.507,487.7Z" transform="translate(-306.365 -473.246)" fill="#4687c7"/>
      <path id="Path_33" data-name="Path 33" d="M326.778,476.118c.091-.506.357-.869.9-.831a.808.808,0,0,1,.794.926.8.8,0,0,1-.889.831A.848.848,0,0,1,326.778,476.118Z" transform="translate(-282.107 -467.239)" fill="#4687c7"/>
      <path id="Path_34" data-name="Path 34" d="M363.327,519.693a.769.769,0,0,1,.8.886.717.717,0,0,1-.723.746c-.516.028-.893-.2-.9-.76A.823.823,0,0,1,363.327,519.693Z" transform="translate(-300.522 -490.129)" fill="#4687c7"/>
      <path id="Path_35" data-name="Path 35" d="M355.787,493.378a.778.778,0,0,1-.964.718.719.719,0,0,1-.681-.8.793.793,0,0,1,.873-.836C355.579,492.477,355.785,492.856,355.787,493.378Z" transform="translate(-296.211 -476.092)" fill="#4687c7"/>
      <path id="Path_36" data-name="Path 36" d="M344.167,478.005c-.1.561-.358.847-.8.829a.726.726,0,0,1-.743-.9.69.69,0,0,1,.851-.577A.739.739,0,0,1,344.167,478.005Z" transform="translate(-290.27 -468.302)" fill="#4687c7"/>
      <path id="Path_37" data-name="Path 37" d="M367.435,502.633a.7.7,0,0,1,.749.679.651.651,0,0,1-.528.7.666.666,0,0,1-.857-.555C366.707,503.027,366.986,502.745,367.435,502.633Z" transform="translate(-302.726 -481.336)" fill="#4687c7"/>
      <path id="Path_38" data-name="Path 38" d="M361.474,515.4c-.023.482-.239.771-.694.805a.7.7,0,0,1-.141-1.392C361.085,514.719,361.335,515.031,361.474,515.4Z" transform="translate(-299.254 -487.604)" fill="#4687c7"/>
      <path id="Path_39" data-name="Path 39" d="M319.035,485.384a.7.7,0,0,1-.758-.669c-.043-.48.253-.718.707-.747a.607.607,0,0,1,.7.541A.7.7,0,0,1,319.035,485.384Z" transform="translate(-277.723 -471.714)" fill="#4687c7"/>
      <path id="Path_40" data-name="Path 40" d="M315.2,478.937l.009.04c.464-.3.868-.993,1.5-.311a.574.574,0,0,1-.1.878C315.836,480.093,315.608,479.281,315.2,478.937Z" transform="translate(-276.137 -468.832)" fill="#4687c7"/>
      <path id="Path_41" data-name="Path 41" d="M341.373,494.682c-.084.358-.3.623-.675.51a.811.811,0,0,1-.485-.513.53.53,0,0,1,.57-.63A.568.568,0,0,1,341.373,494.682Z" transform="translate(-289.026 -476.911)" fill="#4687c7"/>
      <path id="Path_42" data-name="Path 42" d="M317.194,473.65c.086.467-.107.633-.384.691a.562.562,0,0,1-.706-.508c-.065-.36.124-.734.495-.7C316.843,473.162,317.054,473.52,317.194,473.65Z" transform="translate(-276.599 -466.13)" fill="#4687c7"/>
      <path id="Path_43" data-name="Path 43" d="M391.986,518.816c-.242-.088-.515-.16-.456-.5a.406.406,0,0,1,.549-.355.608.608,0,0,1,.364.365C392.526,518.661,392.221,518.723,391.986,518.816Z" transform="translate(-315.479 -489.223)" fill="#4687c7"/>
      <path id="Path_44" data-name="Path 44" d="M365.81,534.524c-.182.109-.339.278-.455.254-.142-.03-.346-.216-.354-.344a.359.359,0,0,1,.481-.388C365.608,534.082,365.676,534.318,365.81,534.524Z" transform="translate(-301.809 -497.517)" fill="#4687c7"/>
      <path id="Path_45" data-name="Path 45" d="M338.152,481.692l-.531.29a1.587,1.587,0,0,1-.215-.463c-.009-.069.226-.253.272-.23A2.568,2.568,0,0,1,338.152,481.692Z" transform="translate(-287.585 -470.333)" fill="#4687c7"/>
      <path id="Path_46" data-name="Path 46" d="M303.912,470.61c1.317.121,2.087.769,2.052,2.026a1.926,1.926,0,0,1-2.224,1.988,1.841,1.841,0,0,1-1.851-2.126A1.875,1.875,0,0,1,303.912,470.61Z" transform="translate(-269.275 -464.829)" fill="#fff"/>
      <path id="Path_47" data-name="Path 47" d="M372.629,550.507c-.127.56-.418.973-1.056.908a.864.864,0,0,1-.822-.931.878.878,0,0,1,1.028-.916A.962.962,0,0,1,372.629,550.507Z" transform="translate(-304.772 -505.525)" fill="#fff"/>
      <path id="Path_48" data-name="Path 48" d="M305.639,465.871c.545.062.892.317.87.86a.756.756,0,0,1-.731.757.776.776,0,0,1-.935-.743C304.8,466.216,305.163,465.948,305.639,465.871Z" transform="translate(-270.798 -462.386)" fill="#fff"/>
      <path id="Path_49" data-name="Path 49" d="M300.413,479.863c.554.054.87.338.835.9a.76.76,0,0,1-.747.775.779.779,0,0,1-.929-.793C299.54,480.175,299.883,479.915,300.413,479.863Z" transform="translate(-268.082 -469.599)" fill="#fff"/>
      <path id="Path_50" data-name="Path 50" d="M386.644,545.4a.749.749,0,0,1-.775.75.806.806,0,1,1-.086-1.61C386.348,544.519,386.583,544.9,386.644,545.4Z" transform="translate(-312.123 -502.938)" fill="#fff"/>
      <path id="Path_51" data-name="Path 51" d="M367.288,546.08a.733.733,0,0,1,.782.695.688.688,0,0,1-.682.782.7.7,0,0,1-.775-.695C366.56,546.394,366.828,546.146,367.288,546.08Z" transform="translate(-302.636 -503.73)" fill="#fff"/>
      <path id="Path_52" data-name="Path 52" d="M376.435,555.5c.47.08.758.352.7.81a.708.708,0,0,1-.851.634.63.63,0,0,1-.582-.683A.745.745,0,0,1,376.435,555.5Z" transform="translate(-307.322 -508.588)" fill="#fff"/>
      <path id="Path_53" data-name="Path 53" d="M305.216,485.367a.76.76,0,0,1-.873.636.65.65,0,0,1-.584-.861.643.643,0,0,1,.719-.543A.723.723,0,0,1,305.216,485.367Z" transform="translate(-270.228 -472.038)" fill="#fff"/>
      <path id="Path_54" data-name="Path 54" d="M295.7,476.352a.638.638,0,0,1-.744.666.609.609,0,0,1-.616-.61.639.639,0,0,1,.748-.668A.623.623,0,0,1,295.7,476.352Z" transform="translate(-265.388 -467.473)" fill="#fff"/>
      <path id="Path_55" data-name="Path 55" d="M294.684,483.46a.616.616,0,0,1-.6-.65.511.511,0,0,1,.693-.491.809.809,0,0,1,.5.514C295.333,483.2,295.08,483.435,294.684,483.46Z" transform="translate(-265.253 -470.851)" fill="#fff"/>
      <path id="Path_56" data-name="Path 56" d="M297.736,469.816a.486.486,0,0,1-.465-.532.574.574,0,0,1,.668-.556.5.5,0,0,1,.456.55A.528.528,0,0,1,297.736,469.816Z" transform="translate(-266.896 -463.857)" fill="#fff"/>
      <path id="Path_57" data-name="Path 57" d="M304.244,463.261c-.124.33-.323.478-.6.395a.532.532,0,0,1-.43-.711.484.484,0,0,1,.6-.327A.5.5,0,0,1,304.244,463.261Z" transform="translate(-269.942 -460.703)" fill="#fff"/>
      <path id="Path_58" data-name="Path 58" d="M384.229,553.793a.562.562,0,0,1-.666.536.534.534,0,0,1-.494-.7.775.775,0,0,1,.556-.446A.546.546,0,0,1,384.229,553.793Z" transform="translate(-311.108 -507.394)" fill="#fff"/>
      <path id="Path_59" data-name="Path 59" d="M370.16,556.253a.582.582,0,0,1,.666.569.493.493,0,0,1-.465.539.51.51,0,0,1-.642-.546A.5.5,0,0,1,370.16,556.253Z" transform="translate(-304.241 -508.973)" fill="#fff"/>
      <path id="Path_60" data-name="Path 60" d="M389.668,548.213c.042-.468.269-.547.532-.467a.58.58,0,0,1,.369.321c.06.3-.188.467-.443.476S389.657,548.4,389.668,548.213Z" transform="translate(-314.523 -504.575)" fill="#fff"/>
      <path id="Path_61" data-name="Path 61" d="M294.06,468.13c-.1.259-.253.374-.472.309a.416.416,0,0,1-.336-.556.379.379,0,0,1,.47-.256A.388.388,0,0,1,294.06,468.13Z" transform="translate(-264.812 -463.286)" fill="#fff"/>
      <circle id="Ellipse_1" data-name="Ellipse 1" cx="0.383" cy="0.383" r="0.383" transform="translate(26.973 7.476)" fill="#fff"/>
      <circle id="Ellipse_2" data-name="Ellipse 2" cx="0.337" cy="0.337" r="0.337" transform="translate(27.74 10.257)" fill="#fff"/>
      <circle id="Ellipse_3" data-name="Ellipse 3" cx="0.396" cy="0.396" r="0.396" transform="translate(32.328 5.171)" fill="#fff"/>
      <circle id="Ellipse_4" data-name="Ellipse 4" cx="0.462" cy="0.462" r="0.462" transform="translate(36.205 10.179)" fill="#fff"/>
      <circle id="Ellipse_5" data-name="Ellipse 5" cx="0.507" cy="0.507" r="0.507" transform="translate(35.711 12.253)" fill="#fff"/>
      <circle id="Ellipse_6" data-name="Ellipse 6" cx="0.473" cy="0.473" r="0.473" transform="translate(34.041 10.897)" fill="#fff"/>
      <circle id="Ellipse_7" data-name="Ellipse 7" cx="0.451" cy="0.451" r="0.451" transform="translate(30.936 12.558)" fill="#fff"/>
      <circle id="Ellipse_8" data-name="Ellipse 8" cx="0.605" cy="0.605" r="0.605" transform="translate(31.118 8.266)" fill="#fff"/>
      <circle id="Ellipse_9" data-name="Ellipse 9" cx="0.515" cy="0.515" r="0.515" transform="translate(29.635 3.192)" fill="#fff"/>
      <circle id="Ellipse_10" data-name="Ellipse 10" cx="0.087" cy="0.087" r="0.087" transform="translate(26.973 9.272)" fill="#fff"/>
      <circle id="Ellipse_11" data-name="Ellipse 11" cx="0.188" cy="0.188" r="0.188" transform="translate(26.502 10.265)" fill="#fff"/>
      <circle id="Ellipse_12" data-name="Ellipse 12" cx="0.296" cy="0.296" r="0.296" transform="translate(27.147 11.649)" fill="#fff"/>
      <circle id="Ellipse_13" data-name="Ellipse 13" cx="0.296" cy="0.296" r="0.296" transform="translate(28.077 6.248)" fill="#fff"/>
      <circle id="Ellipse_14" data-name="Ellipse 14" cx="1.963" cy="1.963" r="1.963" transform="translate(68.131 40.839)" fill="#fff"/>
      <circle id="Ellipse_15" data-name="Ellipse 15" cx="0.469" cy="0.469" r="0.469" transform="translate(67.193 40.462)" fill="#fff"/>
      <circle id="Ellipse_16" data-name="Ellipse 16" cx="0.596" cy="0.596" r="0.596" transform="translate(64.703 40.839)" fill="#fff"/>
      <circle id="Ellipse_17" data-name="Ellipse 17" cx="0.542" cy="0.542" r="0.542" transform="translate(66.396 42.41)" fill="#fff"/>
      <circle id="Ellipse_18" data-name="Ellipse 18" cx="0.416" cy="0.416" r="0.416" transform="translate(72.056 44.324)" fill="#fff"/>
      <circle id="Ellipse_19" data-name="Ellipse 19" cx="0.182" cy="0.182" r="0.182" transform="translate(74.522 47.277)" fill="#fff"/>
      <circle id="Ellipse_20" data-name="Ellipse 20" cx="0.458" cy="0.458" r="0.458" transform="translate(72.888 48.092)" fill="#fff"/>
      <circle id="Ellipse_21" data-name="Ellipse 21" cx="0.477" cy="0.477" r="0.477" transform="translate(69.869 49.788)" fill="#fff"/>
      <circle id="Ellipse_22" data-name="Ellipse 22" cx="0.589" cy="0.589" r="0.589" transform="translate(68.531 45.549)" fill="#fff"/>
      <circle id="Ellipse_23" data-name="Ellipse 23" cx="0.491" cy="0.491" r="0.491" transform="translate(64.703 45.549)" fill="#fff"/>
      <circle id="Ellipse_24" data-name="Ellipse 24" cx="0.46" cy="0.46" r="0.46" transform="translate(66.796 49.009)" fill="#fff"/>
      <circle id="Ellipse_25" data-name="Ellipse 25" cx="0.454" cy="0.454" r="0.454" transform="translate(65.895 11.649)" fill="#4687c7"/>
      <circle id="Ellipse_26" data-name="Ellipse 26" cx="0.5" cy="0.5" r="0.5" transform="translate(70.137 16.369)" fill="#4687c7"/>
      <circle id="Ellipse_27" data-name="Ellipse 27" cx="0.491" cy="0.491" r="0.491" transform="translate(61.238 17.723)" fill="#4687c7"/>
      <circle id="Ellipse_28" data-name="Ellipse 28" cx="0.372" cy="0.372" r="0.372" transform="translate(61.238 20.895)" fill="#4687c7"/>
      <circle id="Ellipse_29" data-name="Ellipse 29" cx="0.412" cy="0.412" r="0.412" transform="translate(48.391 15.968)" fill="#4687c7"/>
      <circle id="Ellipse_30" data-name="Ellipse 30" cx="0.35" cy="0.35" r="0.35" transform="translate(72.007 31.887)" fill="#4687c7"/>
      <circle id="Ellipse_31" data-name="Ellipse 31" cx="0.436" cy="0.436" r="0.436" transform="translate(76.095 35.823)" fill="#4687c7"/>
      <circle id="Ellipse_32" data-name="Ellipse 32" cx="0.497" cy="0.497" r="0.497" transform="translate(51.761 2.714)" fill="#4687c7"/>
      <circle id="Ellipse_33" data-name="Ellipse 33" cx="0.568" cy="0.568" r="0.568" transform="translate(54.773 9.046)" fill="#4687c7"/>
      <circle id="Ellipse_34" data-name="Ellipse 34" cx="0.503" cy="0.503" r="0.503" transform="translate(40.55 0.464)" fill="#4687c7"/>
      <circle id="Ellipse_35" data-name="Ellipse 35" cx="0.481" cy="0.481" r="0.481" transform="translate(43.709 2.976)" fill="#4687c7"/>
    </g>
    <g id="Group_2" data-name="Group 2" transform="translate(334.11 467.472)">
      <path id="Path_62" data-name="Path 62" d="M456.3,499.222q14.272,0,14.271,16.352t-15.282,16.352a24.631,24.631,0,0,1-8.592-1.278v8.919a3.106,3.106,0,0,1-.982,2.26,3.227,3.227,0,0,1-2.379.951h-3.36v-43.2h3.36a3.227,3.227,0,0,1,2.379.951,3.106,3.106,0,0,1,.982,2.26Q449.406,499.222,456.3,499.222Zm-9.6,25.063a25.066,25.066,0,0,0,8.592,1.517q4.727,0,6.749-2.676,1.813-2.438,1.814-7.552,0-5.144-1.724-7.522-1.9-2.675-6.63-2.676-6.929,0-8.8,5.262Z" transform="translate(-439.981 -488.37)" fill="#7abb46"/>
      <path id="Path_63" data-name="Path 63" d="M514.719,499.579h3.359a3.228,3.228,0,0,1,2.379.951,3.106,3.106,0,0,1,.981,2.26q2.705-3.568,8.027-3.568a30.452,30.452,0,0,1,6.631.832v2.973q0,2.617-3.33,2.617a28.255,28.255,0,0,0-4.1-.268q-5.173,0-7.225,5.768v17.214a3.087,3.087,0,0,1-.952,2.26,3.329,3.329,0,0,1-2.408.951h-3.359Z" transform="translate(-478.505 -488.37)" fill="#7abb46" stroke="#e4e4e4" stroke-width="1"/>
      <path id="Path_64" data-name="Path 64" d="M577.095,531.927q-14.27,0-14.271-16.352t15.312-16.352q15.281,0,15.282,16.352v15.995h-3.36a3.271,3.271,0,0,1-2.408-.981,2.988,2.988,0,0,1-.952-2.23Q584.023,531.927,577.095,531.927Zm9.6-16.352q0-4.935-1.694-7.344-1.993-2.883-6.868-2.884t-6.868,2.884q-1.725,2.409-1.724,7.344,0,4.995,1.606,7.373,1.932,2.854,6.749,2.854,6.778,0,8.8-5.8Z" transform="translate(-503.301 -488.37)" fill="#7abb46"/>
      <path id="Path_65" data-name="Path 65" d="M666.7,531.569h-3.36a3.273,3.273,0,0,1-2.408-.981,2.988,2.988,0,0,1-.951-2.23V510.817q0-5.469-5.739-5.471-6.749,0-8.8,5.8v17.214a2.992,2.992,0,0,1-.952,2.23,3.273,3.273,0,0,1-2.408.981h-3.359V499.579h3.359a3.276,3.276,0,0,1,2.408.981,2.994,2.994,0,0,1,.952,2.23q3-3.568,9.6-3.568,11.654,0,11.655,10.911Z" transform="translate(-542.425 -488.37)" fill="#7abb46"/>
      <path id="Path_66" data-name="Path 66" d="M710.148,480.036a3.1,3.1,0,0,1,.981-2.259,3.226,3.226,0,0,1,2.379-.952h3.36v4.311a3.1,3.1,0,0,1-.982,2.259,3.227,3.227,0,0,1-2.378.952h-3.36Zm0,11.209a2.992,2.992,0,0,1,.951-2.23,3.277,3.277,0,0,1,2.409-.981h3.36v28.78a2.992,2.992,0,0,1-.952,2.23,3.273,3.273,0,0,1-2.408.981h-3.36Z" transform="translate(-579.239 -476.825)" fill="#7abb46"/>
      <path id="Path_67" data-name="Path 67" d="M764.366,515.574q0,16.352-15.282,16.352-15.312,0-15.312-16.352t15.312-16.352Q764.365,499.222,764.366,515.574Zm-15.282-10.2q-4.876,0-6.868,2.854-1.725,2.409-1.724,7.344t1.724,7.373q1.991,2.854,6.868,2.854t6.868-2.854q1.694-2.438,1.694-7.373t-1.694-7.344Q753.96,505.377,749.084,505.376Z" transform="translate(-591.417 -488.37)" fill="#7abb46"/>
      <path id="Path_68" data-name="Path 68" d="M836.548,531.569h-3.36a3.274,3.274,0,0,1-2.409-.981,2.99,2.99,0,0,1-.951-2.23V510.817q0-5.469-5.738-5.471-6.75,0-8.8,5.8v17.214a2.991,2.991,0,0,1-.951,2.23,3.273,3.273,0,0,1-2.408.981h-3.36V499.579h3.36a3.276,3.276,0,0,1,2.408.981,2.994,2.994,0,0,1,.951,2.23q3-3.568,9.6-3.568,11.654,0,11.655,10.911Z" transform="translate(-629.971 -488.37)" fill="#7abb46"/>
    </g>
  </g>
</svg>
