<svg xmlns="http://www.w3.org/2000/svg" width="18.426" height="15" viewBox="0 0 18.426 15">
  <path id="twitter_5_" data-name="twitter (5)" d="M20.426,5.646a7.822,7.822,0,0,1-2.174.59,3.8,3.8,0,0,0,1.668-2.091,7.564,7.564,0,0,1-2.4.921,3.777,3.777,0,0,0-6.449,3.446A10.724,10.724,0,0,1,3.281,4.559a3.833,3.833,0,0,0-.507,1.907A3.768,3.768,0,0,0,4.451,9.608a3.731,3.731,0,0,1-1.714-.47v.046a3.777,3.777,0,0,0,3.04,3.685,3.621,3.621,0,0,1-1.013.157,4.514,4.514,0,0,1-.709-.064,3.787,3.787,0,0,0,3.529,2.616A7.573,7.573,0,0,1,2.921,17.2,7.307,7.307,0,0,1,2,17.144a10.659,10.659,0,0,0,5.795,1.7A10.678,10.678,0,0,0,18.583,8.088V7.6A7.767,7.767,0,0,0,20.426,5.646Z" transform="translate(-2 -3.849)" fill="#fff"/>
</svg>
