<svg xmlns="http://www.w3.org/2000/svg" width="44" height="44" viewBox="0 0 44 44">
  <g id="arrow_21_" data-name="arrow (21)" transform="translate(20.9 320.9)">
    <path id="Path_1508" data-name="Path 1508" d="M1.1-277.9a21,21,0,0,1-21-21,21,21,0,0,1,21-21,21,21,0,0,1,21,21A21,21,0,0,1,1.1-277.9Zm0-39.715A18.788,18.788,0,0,0-17.615-298.9,18.788,18.788,0,0,0,1.1-280.185,18.788,18.788,0,0,0,19.815-298.9,18.788,18.788,0,0,0,1.1-317.615Z" fill="#fff" stroke="#fff" stroke-width="2"/>
    <path id="Path_1509" data-name="Path 1509" d="M3.282-285.625,1.7-287.294l10.28-10.368L1.7-308.031,3.282-309.7l12.038,12.038L3.282-285.625" transform="translate(-2.621 -1.238)" fill="#fff" stroke="#fff" stroke-width="2"/>
    <path id="Path_1510" data-name="Path 1510" d="M12.388-294.94H-8.7v-2.46H12.388Z" transform="translate(-1.359 -2.73)" fill="#fff" stroke="#fff" stroke-width="2"/>
  </g>
</svg>
